<?xml version="1.0" encoding="UTF-8" standalone="no"?>
<!DOCTYPE svg PUBLIC "-//W3C//DTD SVG 1.1//EN"
 "http://www.w3.org/Graphics/SVG/1.1/DTD/svg11.dtd">
<!-- Generated by graphviz version 2.43.0 (0)
 -->
<!-- Title: G Pages: 1 -->
<svg width="197pt" height="443pt"
 viewBox="0.00 0.00 197.00 443.00" xmlns="http://www.w3.org/2000/svg" xmlns:xlink="http://www.w3.org/1999/xlink">
<g id="graph0" class="graph" transform="scale(1 1) rotate(0) translate(4 439)">
<title>G</title><style>.edge>path:hover{stroke-width:8}</style>
<polygon fill="white" stroke="transparent" points="-4,4 -4,-439 193,-439 193,4 -4,4"/>
<!-- main_py -->
<g id="node1" class="node">
<title>main_py</title><style>.edge>path:hover{stroke-width:8}</style>
<ellipse fill="#598547" stroke="black" cx="154" cy="-18" rx="32.93" ry="18"/>
<text text-anchor="middle" x="154" y="-15.5" font-family="Helvetica,sans-Serif" font-size="10.00" fill="#ffffff">main.py</text>
</g>
<!-- PyQt5 -->
<g id="node2" class="node">
<title>PyQt5</title><style>.edge>path:hover{stroke-width:8}</style>
<polygon fill="#db2f2f" stroke="black" points="54,-145 51,-149 30,-149 27,-145 0,-145 0,-109 54,-109 54,-145"/>
<text text-anchor="middle" x="27" y="-124.5" font-family="Helvetica,sans-Serif" font-size="10.00" fill="#ffffff">PyQt5</text>
</g>
<!-- main_py&#45;&gt;PyQt5 -->
<g id="edge1" class="edge">
<title>main_py&#45;&gt;PyQt5</title><style>.edge>path:hover{stroke-width:8}</style>
<path fill="none" stroke="black" d="M157.42,-35.97C158.79,-46.75 159.02,-60.74 154,-72"/>
<path fill="none" stroke="black" d="M154,-73C137.46,-110.09 107.27,-94.23 63.57,-109.29"/>
<polygon fill="#598547" stroke="black" points="62.09,-106.11 54.04,-113 64.63,-112.63 62.09,-106.11"/>
</g>
<!-- resources -->
<g id="node5" class="node">
<title>resources</title><style>.edge>path:hover{stroke-width:8}</style>
<polygon fill="#478dc2" stroke="black" points="189,-254 186,-258 165,-258 162,-254 125,-254 125,-218 189,-218 189,-254"/>
<text text-anchor="middle" x="157" y="-233.5" font-family="Helvetica,sans-Serif" font-size="10.00" fill="#ffffff">resources</text>
</g>
<!-- main_py&#45;&gt;resources -->
<g id="edge5" class="edge">
<title>main_py&#45;&gt;resources</title><style>.edge>path:hover{stroke-width:8}</style>
<path fill="none" stroke="black" d="M154,-73C134.36,-117.05 142.37,-174.75 149.81,-208.07"/>
<polygon fill="#598547" stroke="black" points="146.44,-209.06 152.16,-217.98 153.25,-207.44 146.44,-209.06"/>
</g>
<!-- sim -->
<g id="node6" class="node">
<title>sim</title><style>.edge>path:hover{stroke-width:8}</style>
<polygon fill="#3f2e6b" stroke="black" points="126,-145 123,-149 102,-149 99,-145 72,-145 72,-109 126,-109 126,-145"/>
<text text-anchor="middle" x="99" y="-124.5" font-family="Helvetica,sans-Serif" font-size="10.00" fill="#ffffff">sim</text>
</g>
<!-- main_py&#45;&gt;sim -->
<g id="edge7" class="edge">
<title>main_py&#45;&gt;sim</title><style>.edge>path:hover{stroke-width:8}</style>
<path fill="none" stroke="black" d="M154,-73C149.07,-84.05 140.67,-93.96 131.89,-102.14"/>
<polygon fill="#598547" stroke="black" points="129.41,-99.66 124.16,-108.86 134,-104.94 129.41,-99.66"/>
</g>
<!-- controller -->
<g id="node3" class="node">
<title>controller</title><style>.edge>path:hover{stroke-width:8}</style>
<polygon fill="#ceb93b" stroke="black" points="68.5,-254 65.5,-258 44.5,-258 41.5,-254 5.5,-254 5.5,-218 68.5,-218 68.5,-254"/>
<text text-anchor="middle" x="37" y="-233.5" font-family="Helvetica,sans-Serif" font-size="10.00" fill="#000000">controller</text>
</g>
<!-- views -->
<g id="node7" class="node">
<title>views</title><style>.edge>path:hover{stroke-width:8}</style>
<polygon fill="#c247b1" stroke="black" points="69,-363 66,-367 45,-367 42,-363 15,-363 15,-327 69,-327 69,-363"/>
<text text-anchor="middle" x="42" y="-342.5" font-family="Helvetica,sans-Serif" font-size="10.00" fill="#ffffff">views</text>
</g>
<!-- controller&#45;&gt;views -->
<g id="edge8" class="edge">
<title>controller&#45;&gt;views</title><style>.edge>path:hover{stroke-width:8}</style>
<path fill="none" stroke="black" d="M37.8,-254.19C38.59,-271.04 39.8,-296.98 40.72,-316.66"/>
<polygon fill="#ceb93b" stroke="black" points="37.24,-317.03 41.2,-326.85 44.23,-316.7 37.24,-317.03"/>
</g>
<!-- models -->
<g id="node4" class="node">
<title>models</title><style>.edge>path:hover{stroke-width:8}</style>
<polygon fill="#47c28d" stroke="black" points="96,-435 93,-439 72,-439 69,-435 42,-435 42,-399 96,-399 96,-435"/>
<text text-anchor="middle" x="69" y="-414.5" font-family="Helvetica,sans-Serif" font-size="10.00" fill="#000000">models</text>
</g>
<!-- sim&#45;&gt;controller -->
<g id="edge2" class="edge">
<title>sim&#45;&gt;controller</title><style>.edge>path:hover{stroke-width:8}</style>
<path fill="none" stroke="black" d="M98.18,-145.18C97.73,-155.55 97.22,-169.03 97,-181"/>
<path fill="none" stroke="black" d="M97,-182C96.75,-195.62 87.9,-206.58 77.06,-214.92"/>
<polygon fill="#3f2e6b" stroke="black" points="74.77,-212.25 68.5,-220.79 78.73,-218.02 74.77,-212.25"/>
</g>
<!-- sim&#45;&gt;models -->
<g id="edge3" class="edge">
<title>sim&#45;&gt;models</title><style>.edge>path:hover{stroke-width:8}</style>
<path fill="none" stroke="black" d="M97,-291C88.06,-324.46 79.63,-363.48 74.4,-388.9"/>
<polygon fill="#3f2e6b" stroke="black" points="70.93,-388.41 72.37,-398.91 77.79,-389.81 70.93,-388.41"/>
</g>
<!-- sim&#45;&gt;resources -->
<g id="edge6" class="edge">
<title>sim&#45;&gt;resources</title><style>.edge>path:hover{stroke-width:8}</style>
<path fill="none" stroke="black" d="M97,-182C96.75,-195.75 105.66,-206.8 116.69,-215.17"/>
<polygon fill="#3f2e6b" stroke="black" points="114.75,-218.08 124.99,-220.79 118.67,-212.28 114.75,-218.08"/>
</g>
<!-- sim&#45;&gt;views -->
<g id="edge9" class="edge">
<title>sim&#45;&gt;views</title><style>.edge>path:hover{stroke-width:8}</style>
<path fill="none" stroke="black" d="M97,-182C96.12,-229.99 108.11,-243.3 97,-290"/>
<path fill="none" stroke="black" d="M97,-291C93.88,-302.69 85.99,-312.78 77.13,-320.93"/>
<polygon fill="#3f2e6b" stroke="black" points="74.61,-318.47 69.19,-327.58 79.11,-323.84 74.61,-318.47"/>
</g>
<!-- views&#45;&gt;models -->
<g id="edge4" class="edge">
<title>views&#45;&gt;models</title><style>.edge>path:hover{stroke-width:8}</style>
<path fill="none" stroke="black" d="M48.67,-363.3C51.71,-371.19 55.38,-380.7 58.76,-389.45"/>
<polygon fill="#c247b1" stroke="black" points="55.54,-390.83 62.4,-398.9 62.07,-388.31 55.54,-390.83"/>
</g>
</g>
</svg>
